# xmcd
#
# Track frame offsets: 
#        225
#        13912
#        26045
#        38777
#        52297
#        64960
#        77037
#        90195
#        105325
#
# Disc length: 1590 seconds
#
# Revision: 2
# Processed by: cddbd v1.5.2PL0 Copyright (c) Steve Scherf et al.
# Submitted via: ExactAudioCopy v1.0b1
#
DISCID=6e063309
DTITLE=Jefferson, Blind Lemon - Moanin' All Over
DYEAR=1996
DGENRE=Blues
TTITLE0=The Black Snake Moan
TTITLE1=Chock House Blues
TTITLE2=Chinch Bug Blues
TTITLE3=Deceitful Brownskin Blues
TTITLE4=Balky Mule Blues
TTITLE5=Blind Lemon's Penitentiary Blues
TTITLE6=That Black Snake Moan No 2
TTITLE7=Long Distance Moan
TTITLE8=Bakershop Blues
EXTD=
EXTT0=
EXTT1=
EXTT2=
EXTT3=
EXTT4=
EXTT5=
EXTT6=
EXTT7=
EXTT8=
PLAYORDER=
